<?xml version="1.0" encoding="UTF-8"?> <svg xmlns="http://www.w3.org/2000/svg" width="24" height="24" viewBox="0 0 24 24" fill="none"><path d="M9.08591 2.23913C10.1851 1.65875 11.2805 1.07124 12.3835 0.5C12.3931 2.43124 12.3835 4.37062 12.3835 6.30593C11.3093 6.558 10.2485 6.87513 9.17431 7.12619L9.32228 7.22784L9.09743 7.20039C9.07245 6.66066 9.09743 6.11991 9.08398 5.58018C9.08398 4.46413 9.08591 3.35112 9.08591 2.23913Z" fill="#8C3223"></path><path d="M12.3828 0.5C13.4827 1.08276 14.5832 1.66451 15.6843 2.24523V5.57612C15.6785 6.09247 15.6843 6.60984 15.6843 7.12619L15.6132 7.14652C14.5399 6.8609 13.4676 6.56715 12.3885 6.30592C12.3819 4.37062 12.3924 2.43124 12.3828 0.5Z" fill="#E15343"></path><path d="M3.3916 5.24784C3.87971 4.99576 4.3611 4.72742 4.85305 4.48145C4.84921 9.4803 4.84921 14.4792 4.85305 19.478C4.3611 19.2392 3.88356 18.9698 3.39544 18.7178C3.39288 14.2298 3.3916 9.73982 3.3916 5.24784Z" fill="#8C3223"></path><path d="M4.85347 4.48145C6.26111 4.86261 7.67836 5.20109 9.08697 5.58225C9.09658 6.12198 9.07545 6.66273 9.10043 7.20246L9.32526 7.22991C10.3457 7.40474 11.3555 7.63646 12.3769 7.80016C12.3884 8.23621 12.3866 8.67121 12.3769 9.10726C11.2835 9.24146 10.1853 9.38272 9.0889 9.54634C9.0889 11.1818 9.09466 12.8183 9.0889 14.4538C10.1824 14.6337 11.2835 14.7587 12.3808 14.9051C12.4029 15.335 12.3884 15.766 12.3875 16.197C11.2863 16.3931 10.189 16.6117 9.09274 16.8333V18.3874C7.67645 18.7604 6.26111 19.101 4.85059 19.477C4.85571 14.4788 4.85667 9.4803 4.85347 4.48145Z" fill="#E15343"></path><path d="M15.6831 5.57595C17.0956 5.20495 18.5109 4.84716 19.9253 4.48633C19.9201 9.34153 19.9201 14.1967 19.9253 19.0519C19.9253 19.1902 19.9118 19.3285 19.9003 19.4667C18.4936 19.114 17.0898 18.7552 15.6841 18.3902C15.6783 17.8719 15.6841 17.3525 15.6841 16.8331C14.5858 16.6115 13.4856 16.3929 12.3826 16.1947C12.3826 15.7638 12.398 15.3328 12.3758 14.9028C11.2785 14.7595 10.1775 14.6314 9.08398 14.4515C9.09455 12.816 9.08398 11.1796 9.08398 9.54418C10.1851 9.38253 11.2834 9.24127 12.3817 9.10199C12.3864 8.66594 12.3883 8.23087 12.3817 7.79482C13.305 7.65561 14.2178 7.43706 15.1412 7.28663C15.3036 7.2586 15.4627 7.21225 15.6159 7.14839L15.6869 7.12806C15.6803 6.60866 15.6774 6.09027 15.6831 5.57595Z" fill="#8C3223"></path><path d="M19.9263 4.48633C20.4068 4.74755 20.8987 4.99455 21.382 5.25984C21.3775 9.74506 21.3775 14.2303 21.382 18.7155C20.8881 18.9788 20.3885 19.2319 19.8984 19.5053V19.4677C19.91 19.3295 19.9196 19.1912 19.9234 19.053C19.9241 14.1971 19.925 9.34153 19.9263 4.48633Z" fill="#E15343"></path><path d="M9.17676 7.12594C10.252 6.87487 11.3117 6.55774 12.386 6.30566C13.4651 6.56689 14.5373 6.86064 15.6106 7.14626C15.4575 7.21013 15.2984 7.25647 15.136 7.2845C14.2135 7.43696 13.3007 7.65551 12.3764 7.79275C11.3541 7.63011 10.3442 7.39732 9.32473 7.22249C9.27572 7.19302 9.22576 7.1605 9.17676 7.12594Z" fill="#5E1F19"></path><path d="M12.3933 9.10449C13.4888 9.24885 14.586 9.38708 15.6804 9.54661V14.453C14.5832 14.6217 13.482 14.7681 12.3809 14.8982C12.3962 12.966 12.3722 11.0347 12.3933 9.10449Z" fill="#E15343"></path><path d="M9.08887 16.8306C10.1842 16.609 11.2825 16.3905 12.3836 16.1943C13.4857 16.3925 14.5859 16.6111 15.6851 16.8327C14.5849 17.1193 13.4876 17.4252 12.3826 17.6936C11.2815 17.4161 10.1852 17.1234 9.08887 16.8306Z" fill="#F2B0A9"></path><path d="M9.08583 18.3892C9.09064 17.8708 9.08583 17.3534 9.08583 16.835C10.1822 17.1267 11.2794 17.4205 12.3787 17.698C12.3902 19.6292 12.3835 21.5665 12.3787 23.4998C11.2746 22.9296 10.1793 22.3411 9.0791 21.7607C9.08359 20.6351 9.08583 19.5112 9.08583 18.3892Z" fill="#8C3223"></path><path d="M12.3809 17.6954C13.4859 17.4271 14.5832 17.1211 15.6833 16.8345C15.6785 17.3529 15.6766 17.8722 15.6833 18.3917C15.6881 19.5098 15.6833 20.6278 15.6833 21.753C14.5828 22.3337 13.483 22.9155 12.3838 23.4983C12.3857 21.563 12.3924 19.6287 12.3809 17.6954Z" fill="#E15343"></path></svg> 