<?xml version="1.0" encoding="UTF-8"?> <svg xmlns="http://www.w3.org/2000/svg" width="24" height="25" viewBox="0 0 24 25" fill="none"><path d="M5.51983 5.00033H18.4828C19.0411 5.00033 19.5014 5.46057 19.5014 6.01884V18.9818C19.5014 19.5401 19.0411 20.0003 18.4828 20.0003H5.51983C4.96154 20.0003 4.5013 19.5401 4.5013 18.9818V6.01884C4.5013 5.46057 4.96154 5.00033 5.51983 5.00033Z" stroke="#8d45f6" stroke-width="1.66667"></path><path d="M11.3776 9.16699H7.21094V10.417H11.3776V9.16699Z" fill="#8d45f6"></path><path d="M17.0026 15.625H12.8359V16.875H17.0026V15.625Z" fill="#8d45f6"></path><path d="M17.0026 13.542H12.8359V14.792H17.0026V13.542Z" fill="#8d45f6"></path><path d="M8.66667 17.5003H9.91668V15.8337H11.5833V14.5837H9.91668V12.917H8.66667V14.5837H7V15.8337H8.66667V17.5003Z" fill="#8d45f6"></path><path d="M13.7427 11.625L14.9177 10.45L16.0927 11.625L16.9761 10.7417L15.8011 9.55833L16.9761 8.38333L16.0927 7.5L14.9177 8.675L13.7427 7.5L12.8594 8.38333L14.0344 9.55833L12.8594 10.7417L13.7427 11.625Z" fill="#8d45f6"></path></svg> 