<?xml version="1.0" encoding="UTF-8"?> <svg xmlns="http://www.w3.org/2000/svg" width="24" height="24" viewBox="0 0 24 24" fill="none"><path d="M16.2812 3.14308V19.7629C16.2812 21.624 17.5639 22.6588 18.9253 22.6588C20.1844 22.6588 21.5693 21.7774 21.5693 19.7629V3.26899C21.5693 1.5653 20.3103 0.499023 18.9253 0.499023C17.5403 0.499023 16.2812 1.67547 16.2812 3.14308Z" fill="#F8AB00"></path><path d="M9.35547 11.5781V19.7621C9.35547 21.6232 10.6381 22.658 11.9995 22.658C13.2586 22.658 14.6435 21.7766 14.6435 19.7621V11.704C14.6435 10.0004 13.3845 8.93408 11.9995 8.93408C10.6145 8.93408 9.35547 10.1105 9.35547 11.5781Z" fill="#E37300"></path><path d="M7.71874 20.0147C7.71874 21.4744 6.53443 22.6587 5.0747 22.6587C3.61497 22.6587 2.43066 21.4744 2.43066 20.0147C2.43066 18.5549 3.61497 17.3706 5.0747 17.3706C6.53443 17.3706 7.71874 18.5549 7.71874 20.0147Z" fill="#E37300"></path></svg> 