<?xml version="1.0" encoding="UTF-8"?> <svg xmlns="http://www.w3.org/2000/svg" width="24" height="24" viewBox="0 0 24 24" fill="none"><g clip-path="url(#clip0_15582_24989)"><path d="M12.0013 14.917C12.4597 14.917 12.852 14.7538 13.1784 14.4274C13.5048 14.101 13.668 13.7087 13.668 13.2503C13.668 12.792 13.5048 12.3996 13.1784 12.0732C12.852 11.7469 12.4597 11.5837 12.0013 11.5837C11.543 11.5837 11.1506 11.7469 10.8242 12.0732C10.4979 12.3996 10.3347 12.792 10.3347 13.2503C10.3347 13.7087 10.4979 14.101 10.8242 14.4274C11.1506 14.7538 11.543 14.917 12.0013 14.917ZM5.33464 19.5003C4.87631 19.5003 4.48394 19.3371 4.15755 19.0107C3.83116 18.6844 3.66797 18.292 3.66797 17.8337V8.66699C3.66797 8.20866 3.83116 7.8163 4.15755 7.48991C4.48394 7.16352 4.87631 7.00033 5.33464 7.00033H8.66798V5.33366C8.66798 4.87533 8.83118 4.48296 9.15757 4.15658C9.48396 3.83019 9.87632 3.66699 10.3347 3.66699H13.668C14.1263 3.66699 14.5187 3.83019 14.8451 4.15658C15.1715 4.48296 15.3347 4.87533 15.3347 5.33366V7.00033H18.668C19.1264 7.00033 19.5187 7.16352 19.8451 7.48991C20.1715 7.8163 20.3347 8.20866 20.3347 8.66699V17.8337C20.3347 18.292 20.1715 18.6844 19.8451 19.0107C19.5187 19.3371 19.1264 19.5003 18.668 19.5003H5.33464ZM5.33464 17.8337H18.668V8.66699H5.33464V17.8337ZM10.3347 7.00033H13.668V5.33366H10.3347V7.00033Z" fill="#8d45f6"></path></g><defs><clipPath id="clip0_15582_24989"><rect width="20" height="20" fill="white" transform="translate(2 2)"></rect></clipPath></defs></svg> 