<?xml version="1.0" encoding="UTF-8"?> <svg xmlns="http://www.w3.org/2000/svg" width="24" height="24" viewBox="0 0 24 24" fill="none"><path d="M4.19171 21.8333C3.33329 21.8333 2.70317 21.5546 2.30136 20.9972C1.89955 20.4399 1.89955 19.7432 2.30136 18.9072L9.12306 4.90377C9.45182 4.2245 9.85361 3.72811 10.3285 3.4146C10.8034 3.10109 11.3605 2.94434 11.9997 2.94434C12.6206 2.94434 13.1686 3.10109 13.6434 3.4146C14.1184 3.72811 14.5202 4.2245 14.8489 4.90377L21.6706 18.9072C22.0907 19.7606 22.109 20.466 21.7254 21.0234C21.3418 21.5633 20.7391 21.8333 19.9172 21.8333C19.1867 21.8333 18.6205 21.6765 18.2187 21.363C17.8351 21.0495 17.4881 20.5444 17.1776 19.8477C17.1776 19.8477 16.8048 18.5502 16.3009 17.8621C14.3529 15.2021 7.67105 17.8621 7.67105 17.8621L6.79437 19.8477C6.46561 20.5444 6.12772 21.0495 5.7807 21.363C5.43368 21.6765 4.90401 21.8333 4.19171 21.8333ZM11.9449 8.19561L9.31483 14.1784H14.6298L11.9997 8.19561H11.9449Z" fill="#FF4E2C"></path></svg> 