<?xml version="1.0" encoding="UTF-8"?> <svg xmlns="http://www.w3.org/2000/svg" width="24" height="24" viewBox="0 0 24 24" fill="none"><path d="M23 11.9997C23 5.93284 18.0653 1 12.0003 1C5.93535 1 1 5.93284 1 11.9997C1 17.7311 5.40627 22.4521 11.0092 22.9542H11.0362C11.1281 22.9622 11.2203 22.9691 11.3126 22.9749L11.366 22.9781C11.4495 22.9831 11.5344 22.9868 11.6204 22.9893H11.6875C11.7916 22.9893 11.8956 22.9944 12.001 22.9944C12.1063 22.9944 12.1996 22.9944 12.2986 22.99H12.3407C12.428 22.9875 12.515 22.9839 12.6015 22.9793H12.6191C12.8142 22.9684 13.0082 22.9524 13.2008 22.931C18.7029 22.3343 23 17.6597 23 11.9997ZM13.1631 21.8842L13.0572 18.842L15.7139 17.2121C16.0187 17.4211 16.3756 17.5416 16.7447 17.5604C17.1139 17.5791 17.481 17.4953 17.8055 17.3183C18.13 17.1412 18.3991 16.8778 18.5832 16.5573C18.7672 16.2368 18.8589 15.8714 18.8483 15.502C18.8277 14.9932 18.6164 14.5107 18.2563 14.1506C17.8962 13.7906 17.4138 13.5793 16.9049 13.5587C16.6098 13.5481 16.316 13.6034 16.0447 13.7204C15.7736 13.8374 15.5318 14.0133 15.337 14.2354C15.1421 14.4574 14.9992 14.7201 14.9184 15.0042C14.8377 15.2883 14.8212 15.5869 14.8701 15.8782L12.9952 17.0379L12.8591 13.2045L15.4738 11.6054C15.9188 11.9376 16.4667 12.1022 17.0211 12.0698C17.5755 12.0376 18.1006 11.8107 18.504 11.4291C18.9073 11.0474 19.1631 10.5356 19.226 9.98392C19.2889 9.43216 19.155 8.87589 18.8478 8.41327C18.5407 7.95062 18.0801 7.61126 17.5473 7.45503C17.0143 7.2988 16.4435 7.33572 15.9351 7.55929C15.4268 7.78286 15.0138 8.17873 14.7688 8.67709C14.5238 9.17542 14.4627 9.74423 14.5962 10.2833L12.7964 11.4004L12.6899 8.34127C13.1075 8.17979 13.4641 7.89155 13.7095 7.51704C13.9549 7.14253 14.0769 6.70055 14.0583 6.25317C14.0423 5.86708 13.922 5.49252 13.7104 5.16918C13.4989 4.84583 13.2037 4.58572 12.8563 4.4164C12.509 4.24708 12.1223 4.17485 11.7373 4.20736C11.3522 4.23987 10.9832 4.37591 10.6691 4.60108C10.3551 4.82624 10.1077 5.13214 9.95334 5.48638C9.79894 5.84064 9.74324 6.23004 9.7921 6.61337C9.84092 6.99669 9.99261 7.35966 10.2309 7.66385C10.4692 7.96804 10.7854 8.20211 11.1459 8.34127L10.9516 14.6796L8.99259 13.4314C9.12329 12.8974 9.0609 12.3343 8.81645 11.8417C8.42465 11.0268 7.63479 10.4488 6.73398 10.3923C6.32904 10.3659 5.92379 10.4392 5.55369 10.6056C5.1836 10.7721 4.85996 11.0267 4.61106 11.3473C4.36217 11.6678 4.19564 12.0444 4.12603 12.4442C4.05642 12.844 4.08585 13.2548 4.21177 13.6405C4.33767 14.0263 4.55621 14.3753 4.84826 14.6572C5.14031 14.9389 5.49696 15.1448 5.88701 15.2568C6.27706 15.3687 6.68861 15.3834 7.08565 15.2996C7.48269 15.2156 7.85311 15.0357 8.1645 14.7755L10.8952 16.5031L10.7309 21.8723C5.84132 21.2485 2.04373 17.0591 2.04373 11.9997C2.0475 6.51207 6.51207 2.04624 12.0003 2.04624C17.4886 2.04624 21.9531 6.51081 21.9531 11.999C21.9531 17.0942 18.1048 21.3062 13.1631 21.8842Z" fill="#2A303E"></path><path d="M11.9148 5.04541C11.6577 5.04541 11.4065 5.12163 11.1927 5.26442C10.979 5.40721 10.8125 5.61016 10.7141 5.84762C10.6158 6.08508 10.5901 6.34636 10.6402 6.59843C10.6904 6.85052 10.8141 7.08206 10.9958 7.2638C11.1776 7.44554 11.4091 7.5693 11.6612 7.61945C11.9132 7.66959 12.1746 7.64385 12.412 7.5455C12.6495 7.44714 12.8524 7.28059 12.9952 7.06688C13.138 6.85318 13.2142 6.60193 13.2142 6.34492C13.2139 6.00036 13.0769 5.67003 12.8333 5.42639C12.5896 5.18277 12.2593 5.04575 11.9148 5.04541Z" fill="white"></path><path d="M16.8127 14.4102C16.5793 14.4105 16.3512 14.4801 16.1574 14.6101C15.9636 14.7402 15.8127 14.9247 15.7238 15.1404C15.6348 15.3563 15.6119 15.5935 15.6579 15.8224C15.7039 16.0512 15.8167 16.2612 15.9821 16.4259C16.1475 16.5906 16.358 16.7026 16.587 16.7475C16.816 16.7925 17.0532 16.7687 17.2686 16.6788C17.484 16.589 17.6679 16.4372 17.7972 16.2429C17.9263 16.0485 17.995 15.8201 17.9943 15.5868C17.9932 15.2742 17.8681 14.9749 17.6466 14.7543C17.4252 14.5338 17.1253 14.41 16.8127 14.4102Z" fill="white"></path><path d="M17.5405 10.9884C17.7873 10.8681 17.993 10.6774 18.1315 10.4403C18.27 10.2031 18.335 9.93018 18.3184 9.65606C18.3018 9.38183 18.2042 9.11882 18.0381 8.90014C17.872 8.68145 17.6448 8.51693 17.3851 8.4274C17.1255 8.33789 16.8451 8.32736 16.5795 8.39718C16.3139 8.46699 16.075 8.61401 15.8929 8.81962C15.7109 9.02521 15.5938 9.2803 15.5567 9.55233C15.5196 9.82447 15.564 10.1015 15.6843 10.3484C15.8458 10.6792 16.1321 10.9323 16.48 11.0523C16.828 11.1723 17.2094 11.1493 17.5405 10.9884Z" fill="white"></path><path d="M6.57446 11.3726C6.27844 11.3727 5.98911 11.4606 5.74303 11.6251C5.49695 11.7897 5.30518 12.0234 5.19195 12.2969C5.07873 12.5705 5.04914 12.8714 5.10692 13.1617C5.16471 13.452 5.30726 13.7187 5.51657 13.9281C5.72589 14.1373 5.99257 14.2799 6.28289 14.3377C6.57322 14.3955 6.87416 14.3659 7.14766 14.2527C7.42117 14.1394 7.65497 13.9477 7.81951 13.7016C7.98405 13.4555 8.07193 13.1661 8.07206 12.8701C8.07172 12.4731 7.91384 12.0923 7.63305 11.8116C7.35227 11.5307 6.97154 11.3729 6.57446 11.3726Z" fill="white"></path></svg> 