<?xml version="1.0" encoding="UTF-8"?> <svg xmlns="http://www.w3.org/2000/svg" width="24" height="24" viewBox="0 0 24 24" fill="none"><g clip-path="url(#clip0_15582_24133)"><path d="M10.3347 15.3337H13.668C13.9041 15.3337 14.102 15.2538 14.2618 15.0941C14.4215 14.9344 14.5013 14.7364 14.5013 14.5003V12.8337H12.8347V13.667H11.168V10.3337H12.8347V11.167H14.5013V9.50033C14.5013 9.26421 14.4215 9.0663 14.2618 8.90658C14.102 8.74685 13.9041 8.66699 13.668 8.66699H10.3347C10.0985 8.66699 9.90063 8.74685 9.74091 8.90658C9.58118 9.0663 9.50132 9.26421 9.50132 9.50033V14.5003C9.50132 14.7364 9.58118 14.9344 9.74091 15.0941C9.90063 15.2538 10.0985 15.3337 10.3347 15.3337ZM12.0013 20.3337C10.8486 20.3337 9.76521 20.1149 8.75132 19.6774C7.73743 19.2399 6.85548 18.6462 6.10548 17.8962C5.35547 17.1462 4.76172 16.2642 4.32422 15.2503C3.88672 14.2364 3.66797 13.1531 3.66797 12.0003C3.66797 10.8475 3.88672 9.76421 4.32422 8.75033C4.76172 7.73644 5.35547 6.85449 6.10548 6.10449C6.85548 5.35449 7.73743 4.76074 8.75132 4.32324C9.76521 3.88574 10.8486 3.66699 12.0013 3.66699C13.1541 3.66699 14.2375 3.88574 15.2513 4.32324C16.2652 4.76074 17.1472 5.35449 17.8972 6.10449C18.6472 6.85449 19.2409 7.73644 19.6784 8.75033C20.1159 9.76421 20.3347 10.8475 20.3347 12.0003C20.3347 13.1531 20.1159 14.2364 19.6784 15.2503C19.2409 16.2642 18.6472 17.1462 17.8972 17.8962C17.1472 18.6462 16.2652 19.2399 15.2513 19.6774C14.2375 20.1149 13.1541 20.3337 12.0013 20.3337ZM12.0013 18.667C13.8624 18.667 15.4388 18.0212 16.7305 16.7295C18.0222 15.4378 18.668 13.8614 18.668 12.0003C18.668 10.1392 18.0222 8.56283 16.7305 7.27116C15.4388 5.97949 13.8624 5.33366 12.0013 5.33366C10.1402 5.33366 8.56382 5.97949 7.27215 7.27116C5.98048 8.56283 5.33464 10.1392 5.33464 12.0003C5.33464 13.8614 5.98048 15.4378 7.27215 16.7295C8.56382 18.0212 10.1402 18.667 12.0013 18.667Z" fill="#8d45f6"></path></g><defs><clipPath id="clip0_15582_24133"><rect width="20" height="20" fill="white" transform="translate(2 2)"></rect></clipPath></defs></svg> 