<?xml version="1.0" encoding="UTF-8"?> <svg xmlns="http://www.w3.org/2000/svg" width="24" height="25" viewBox="0 0 24 25" fill="none"><path fill-rule="evenodd" clip-rule="evenodd" d="M7.00131 5.83366H18.668V17.5003C18.668 18.4208 17.9218 19.167 17.0013 19.167H5.33464V7.49853C5.33464 6.57923 6.07966 5.83366 7.00131 5.83366ZM20.3347 4.16699H18.668H7.00131C5.16036 4.16699 3.66797 5.65758 3.66797 7.49853V19.167V20.8337H5.33464H17.0013C18.8423 20.8337 20.3347 19.3413 20.3347 17.5003V5.83366V4.16699ZM10.8777 8.8253V7.7253C10.5893 7.7253 10.3278 7.7384 10.0932 7.76459L10.0743 7.76674C9.94173 7.78203 9.81786 7.80155 9.70267 7.8253C9.51759 7.86193 9.3537 7.9125 9.211 7.977C9.10696 8.02403 9.01418 8.07846 8.93266 8.1403C8.9176 8.15167 8.90289 8.16333 8.88856 8.17529L8.88297 8.17998C8.71952 8.31808 8.60442 8.49486 8.53766 8.7103C8.46766 8.94697 8.451 9.23697 8.48766 9.5803L8.49008 9.6032L8.49116 9.61336L8.62703 10.8996L8.62846 10.9131L8.63766 11.0003C8.64084 11.0305 8.64303 11.0599 8.64422 11.0886L8.64434 11.0916C8.64479 11.1031 8.64508 11.1145 8.64521 11.1258L8.64527 11.1451C8.64429 11.3305 8.59842 11.4805 8.50766 11.5953C8.4785 11.6322 8.44591 11.6663 8.4099 11.6977C8.39872 11.7074 8.38721 11.7169 8.37537 11.7261C8.35231 11.744 8.32799 11.761 8.30243 11.7769C8.21913 11.8287 8.12254 11.8699 8.01266 11.9003C7.796 11.957 7.54766 11.9853 7.26766 11.9853V13.2653C7.551 13.2653 7.801 13.2953 8.01766 13.3553C8.12552 13.3835 8.22016 13.4225 8.30158 13.4721C8.32926 13.489 8.3554 13.5072 8.38003 13.5265C8.39003 13.5344 8.39978 13.5425 8.40928 13.5508C8.4458 13.5826 8.47859 13.6174 8.50766 13.6553C8.5941 13.7646 8.63982 13.9059 8.64482 14.0792C8.6456 14.106 8.6454 14.1335 8.64423 14.1618L8.64422 14.1621C8.64303 14.1907 8.64084 14.2201 8.63766 14.2503L8.63048 14.3188L8.62758 14.3464L8.49217 15.6374L8.4914 15.6447L8.48766 15.6803C8.45433 16.017 8.47266 16.302 8.54266 16.5353C8.60682 16.7423 8.71561 16.9137 8.86904 17.0493C8.8773 17.0566 8.8857 17.0638 8.89422 17.0709C8.90834 17.0826 8.92283 17.0941 8.93766 17.1053C9.01787 17.1662 9.10899 17.2201 9.211 17.2672C9.35487 17.3336 9.52043 17.3863 9.70767 17.4253C9.8225 17.4492 9.94634 17.4689 10.0792 17.4842L10.1039 17.487C10.335 17.5125 10.5929 17.5253 10.8777 17.5253V16.4253C10.6777 16.4253 10.5043 16.407 10.3577 16.3703C10.211 16.337 10.101 16.2736 10.0277 16.1803C10.0101 16.1569 9.99528 16.1312 9.98317 16.1032L9.98313 16.1031L9.97798 16.0906C9.94983 16.0191 9.93861 15.9332 9.94429 15.8331L9.94482 15.8246C9.94556 15.8133 9.94651 15.8019 9.94767 15.7903L9.94871 15.7804L9.94993 15.7688L10.0934 14.4035L10.0935 14.403L10.1027 14.3153C10.119 14.1599 10.1226 14.0173 10.1133 13.8875C10.1102 13.8442 10.1057 13.8024 10.0997 13.762L10.0953 13.7337C10.0748 13.6105 10.0406 13.5011 9.99267 13.4053C9.94128 13.3025 9.87619 13.2107 9.79739 13.1299L9.78714 13.1195C9.71425 13.0467 9.62997 12.983 9.53431 12.9284C9.51913 12.9197 9.50365 12.9113 9.48789 12.903L9.47039 12.8941L9.45267 12.8853L9.69557 12.1933C9.77181 12.1288 9.83833 12.0563 9.89512 11.9758L9.89513 11.9758C9.9254 11.9329 9.95292 11.8877 9.97767 11.8403C10.0113 11.7776 10.0388 11.7096 10.0603 11.6362L10.0603 11.6362C10.0858 11.5493 10.1027 11.455 10.1111 11.3531C10.1198 11.2477 10.1194 11.1343 10.1099 11.0128L10.8777 8.8253ZM10.0277 9.0703L10.8777 8.8253C10.6743 8.8253 10.4993 8.84364 10.3527 8.8803C10.2093 8.91364 10.101 8.97697 10.0277 9.0703ZM9.94955 9.47823L10.0933 10.8465L10.0934 10.8471L10.1027 10.9353C10.1055 10.9615 10.1079 10.9873 10.1099 11.0128L9.69557 12.1933C9.64375 12.2371 9.58744 12.2772 9.52664 12.3137C9.5057 12.3263 9.48422 12.3384 9.46221 12.3501C9.44922 12.357 9.43603 12.3637 9.42267 12.3703C9.29049 12.4346 9.1454 12.4889 8.98739 12.5331L9.94955 9.47823ZM8.98739 12.5331L8.93433 12.7015C8.81356 12.6712 8.68467 12.6458 8.54766 12.6253C8.68392 12.6051 8.81281 12.5791 8.93433 12.5474C8.95218 12.5427 8.96986 12.538 8.98739 12.5331ZM9.94955 9.47823L10.0277 9.0703C10.0116 9.091 9.99776 9.11382 9.98624 9.13876C9.98353 9.14464 9.98094 9.15064 9.97848 9.15675L9.97763 9.15887C9.9751 9.16525 9.97272 9.17176 9.97047 9.17839C9.94722 9.24694 9.93865 9.32904 9.94477 9.42469L9.94488 9.42637C9.94561 9.4375 9.94654 9.44881 9.94767 9.4603L9.94784 9.46194L9.94955 9.47823ZM13.3768 8.8253V7.7253C13.6651 7.7253 13.9266 7.7384 14.1612 7.76459L14.1801 7.76674C14.3127 7.78203 14.4366 7.80155 14.5518 7.8253C14.7368 7.86193 14.9007 7.9125 15.0434 7.977C15.1475 8.02403 15.2402 8.07846 15.3218 8.1403C15.3368 8.15167 15.3515 8.16333 15.3659 8.17529L15.3715 8.17998C15.5349 8.31808 15.65 8.49486 15.7168 8.7103C15.7868 8.94697 15.8034 9.23697 15.7668 9.5803L15.7643 9.6032L15.7633 9.61336L15.6274 10.8996L15.626 10.9131L15.6168 11.0003C15.6136 11.0305 15.6114 11.0599 15.6102 11.0886L15.6101 11.0916C15.6096 11.1031 15.6093 11.1145 15.6092 11.1258L15.6092 11.1451C15.6101 11.3305 15.656 11.4805 15.7468 11.5953C15.7759 11.6322 15.8085 11.6663 15.8445 11.6977C15.8557 11.7074 15.8672 11.7169 15.8791 11.7261C15.9021 11.744 15.9264 11.761 15.952 11.7769C16.0353 11.8287 16.1319 11.8699 16.2418 11.9003C16.4584 11.957 16.7068 11.9853 16.9868 11.9853V13.2653C16.7034 13.2653 16.4534 13.2953 16.2368 13.3553C16.1289 13.3835 16.0343 13.4225 15.9528 13.4721C15.9252 13.489 15.899 13.5072 15.8744 13.5265C15.8644 13.5344 15.8546 13.5425 15.8451 13.5508C15.8086 13.5826 15.7758 13.6174 15.7468 13.6553C15.6603 13.7646 15.6146 13.9059 15.6096 14.0792C15.6088 14.106 15.609 14.1335 15.6102 14.1618L15.6102 14.1621C15.6114 14.1907 15.6136 14.2201 15.6168 14.2503L15.6239 14.3188L15.6268 14.3464L15.7622 15.6374L15.763 15.6447L15.7668 15.6803C15.8001 16.017 15.7818 16.302 15.7118 16.5353C15.6476 16.7423 15.5388 16.9137 15.3854 17.0493C15.3771 17.0566 15.3687 17.0638 15.3602 17.0709C15.3461 17.0826 15.3316 17.0941 15.3168 17.1053C15.2365 17.1662 15.1454 17.2201 15.0434 17.2672C14.8995 17.3336 14.734 17.3863 14.5468 17.4253C14.4319 17.4492 14.3081 17.4689 14.1752 17.4842L14.1505 17.487C13.9194 17.5125 13.6615 17.5253 13.3768 17.5253V16.4253C13.5768 16.4253 13.7501 16.407 13.8968 16.3703C14.0434 16.337 14.1534 16.2736 14.2268 16.1803C14.2443 16.1569 14.2591 16.1312 14.2712 16.1032L14.2713 16.1031L14.2764 16.0906C14.3046 16.0191 14.3158 15.9332 14.3101 15.8331L14.3096 15.8246C14.3089 15.8133 14.3079 15.8019 14.3068 15.7903L14.3057 15.7804L14.3045 15.7688L14.161 14.4035L14.161 14.403L14.1518 14.3153C14.1354 14.1599 14.1319 14.0173 14.1411 13.8875C14.1442 13.8442 14.1488 13.8024 14.1547 13.762L14.1592 13.7337C14.1797 13.6105 14.2139 13.5011 14.2618 13.4053C14.3131 13.3025 14.3782 13.2107 14.457 13.1299L14.4673 13.1195C14.5402 13.0467 14.6244 12.983 14.7201 12.9284C14.7353 12.9197 14.7508 12.9113 14.7665 12.903L14.784 12.8941L14.8018 12.8853L14.5589 12.1933C14.6107 12.2371 14.667 12.2772 14.7278 12.3137C14.7487 12.3263 14.7702 12.3384 14.7922 12.3501C14.8052 12.357 14.8184 12.3637 14.8318 12.3703C14.9639 12.4346 15.109 12.4889 15.267 12.5331L15.3201 12.7015C15.4409 12.6712 15.5698 12.6458 15.7068 12.6253C15.5705 12.6051 15.4416 12.5791 15.3201 12.5474C15.3022 12.5427 15.2846 12.538 15.267 12.5331L14.3049 9.47823L14.3066 9.46194L14.3068 9.4603C14.3079 9.44881 14.3088 9.4375 14.3095 9.42637L14.3096 9.42469C14.3158 9.32904 14.3072 9.24694 14.284 9.17839C14.2817 9.17176 14.2793 9.16525 14.2768 9.15887L14.2759 9.15675C14.2735 9.15064 14.2709 9.14464 14.2682 9.13876C14.2567 9.11382 14.2429 9.091 14.2268 9.0703C14.1534 8.97697 14.0451 8.91364 13.9018 8.8803C13.7551 8.84364 13.5801 8.8253 13.3768 8.8253ZM14.1445 11.0128C14.135 11.1343 14.1346 11.2477 14.1433 11.3531C14.1517 11.455 14.1686 11.5493 14.1941 11.6362L14.1941 11.6362C14.2156 11.7096 14.2431 11.7776 14.2768 11.8403C14.3015 11.8877 14.329 11.9329 14.3593 11.9758C14.4161 12.0563 14.4826 12.1288 14.5589 12.1933L14.1445 11.0128ZM14.1445 11.0128L13.3768 8.8253L14.2268 9.0703L14.3049 9.47823L14.1611 10.8465L14.161 10.8471L14.1518 10.9353C14.1489 10.9615 14.1465 10.9873 14.1445 11.0128Z" fill="#8d45f6"></path></svg> 