<?xml version="1.0" encoding="UTF-8"?> <svg xmlns="http://www.w3.org/2000/svg" width="24" height="24" viewBox="0 0 24 24" fill="none"><g clip-path="url(#clip0_15582_31220)"><path d="M6.70704 10.3544L8.33205 11.0419C8.52649 10.653 8.72788 10.278 8.93621 9.91688C9.14455 9.55577 9.37372 9.19465 9.62372 8.83354L8.45705 8.60438L6.70704 10.3544ZM9.66538 12.0835L12.0404 14.4377C12.6237 14.2155 13.2487 13.8752 13.9154 13.4169C14.5821 12.9585 15.2071 12.4377 15.7904 11.8544C16.7626 10.8822 17.523 9.80229 18.0717 8.61479C18.6203 7.42729 18.8599 6.33354 18.7904 5.33354C17.7904 5.2641 16.6932 5.50368 15.4987 6.05229C14.3043 6.6009 13.221 7.36132 12.2487 8.33354C11.6654 8.91688 11.1446 9.54188 10.6862 10.2085C10.2279 10.8752 9.88761 11.5002 9.66538 12.0835ZM13.3737 10.7294C13.0543 10.4099 12.8946 10.0176 12.8946 9.55229C12.8946 9.08702 13.0543 8.69465 13.3737 8.37521C13.6932 8.05577 14.089 7.89604 14.5612 7.89604C15.0335 7.89604 15.4293 8.05577 15.7487 8.37521C16.0682 8.69465 16.2279 9.08702 16.2279 9.55229C16.2279 10.0176 16.0682 10.4099 15.7487 10.7294C15.4293 11.0488 15.0335 11.2085 14.5612 11.2085C14.089 11.2085 13.6932 11.0488 13.3737 10.7294ZM13.7696 17.4169L15.5196 15.6669L15.2904 14.5002C14.9293 14.7502 14.5682 14.9759 14.2071 15.1773C13.846 15.3787 13.471 15.5766 13.0821 15.771L13.7696 17.4169ZM20.2904 3.81271C20.5543 5.49327 20.3911 7.12868 19.8008 8.71896C19.2106 10.3092 18.1932 11.8266 16.7487 13.271L17.1654 15.3335C17.221 15.6113 17.2071 15.8822 17.1237 16.146C17.0404 16.4099 16.9015 16.6391 16.7071 16.8335L13.2071 20.3335L11.4571 16.2294L7.89454 12.6669L3.79036 10.9169L7.26954 7.41688C7.46399 7.22243 7.69663 7.08354 7.96746 7.00021C8.2383 6.91688 8.5126 6.90299 8.79038 6.95854L10.8529 7.37521C12.2973 5.93077 13.8112 4.90993 15.3946 4.31271C16.9779 3.71549 18.6099 3.54882 20.2904 3.81271ZM5.26954 15.3127C5.75565 14.8266 6.3494 14.5801 7.05079 14.5731C7.75218 14.5662 8.34593 14.8058 8.83205 15.2919C9.31816 15.778 9.55774 16.3717 9.5508 17.0731C9.54386 17.7745 9.29733 18.3683 8.81121 18.8544C8.46399 19.2016 7.88413 19.5002 7.07163 19.7502C6.25912 20.0002 5.13759 20.2224 3.70703 20.4169C3.90148 18.9863 4.1237 17.8648 4.3737 17.0523C4.6237 16.2398 4.92231 15.6599 5.26954 15.3127ZM6.45704 16.4794C6.31815 16.6183 6.17926 16.8717 6.04037 17.2398C5.90148 17.6078 5.80426 17.9794 5.7487 18.3544C6.12371 18.2988 6.49523 18.2051 6.86329 18.0731C7.23135 17.9412 7.48482 17.8058 7.62371 17.6669C7.79038 17.5002 7.88066 17.2988 7.89454 17.0627C7.90843 16.8266 7.83204 16.6252 7.66538 16.4585C7.49871 16.2919 7.29732 16.212 7.06121 16.219C6.8251 16.2259 6.62371 16.3127 6.45704 16.4794Z" fill="#8d45f6"></path></g><defs><clipPath id="clip0_15582_31220"><rect width="20" height="20" fill="white" transform="translate(2 2)"></rect></clipPath></defs></svg> 