<?xml version="1.0" encoding="UTF-8"?> <svg xmlns="http://www.w3.org/2000/svg" width="24" height="24" viewBox="0 0 24 24" fill="none"><path d="M12 2C6.48171 2 2 6.46996 2 12.0078H8.05183L12 5.49358L15.9482 12.0078H22C21.9848 6.48521 17.5183 2 12 2Z" fill="#FFCC00"></path><path d="M2 12.0059C2 14.3094 2.79268 16.5369 4.24085 18.3065L8.05183 12.0059H2Z" fill="#3BA8FF"></path><path d="M19.7475 18.306C21.1957 16.5211 21.9883 14.2937 21.9883 12.0054H15.9365L19.7475 18.306Z" fill="#3BA8FF"></path><path d="M11.993 5.49121L8.04492 12.0055H15.926L11.993 5.49121Z" fill="#FF0000"></path><path d="M8.04731 12.0054L4.23633 18.306C6.12658 20.6401 8.97719 21.9979 11.9954 21.9979C14.9985 21.9979 17.8491 20.6401 19.7547 18.306L15.9436 12.0054H8.04731Z" fill="#4643B9"></path></svg> 