<?xml version="1.0" encoding="UTF-8"?> <svg xmlns="http://www.w3.org/2000/svg" width="25" height="25" viewBox="0 0 25 25" fill="none"><path d="M8.30528 11.3391H10.8367C10.2028 10.9419 9.96613 10.3883 9.64921 9.36127L8.69843 5.83889C8.26517 4.25422 7.90813 3.5 6.16704 3.5H2.52843V4.4508H3.04594C4.11305 4.4508 4.2334 4.84797 4.55033 6.03547L5.38075 9.12458C5.81401 10.625 6.48798 11.3391 8.30528 11.3391ZM14.1624 11.3391H16.6938C18.5151 11.3391 19.1449 10.625 19.5822 9.12458L20.4126 6.03547C20.7295 4.84797 20.886 4.4508 21.917 4.4508H22.4345V3.5H18.832C17.0508 3.5 16.6938 4.2141 16.2966 5.83488L15.3458 9.35726C15.0369 10.4244 14.7962 10.9419 14.1624 11.3391ZM10.8367 14.6609H14.1624V11.3351H10.8367V14.6609ZM2.52843 22.5H6.16704C7.90813 22.5 8.26517 21.7458 8.69843 20.1651L9.64921 16.6427C9.96613 15.6157 10.2028 15.0581 10.8367 14.6649H8.30528C6.48397 14.6649 5.81 15.379 5.37674 16.8794L4.54631 19.9685C4.22538 21.152 4.10904 21.5492 3.04192 21.5492H2.52441L2.52843 22.5ZM18.832 22.5H22.4345V21.5492H21.917C20.89 21.5492 20.7295 21.152 20.4126 19.9645L19.5822 16.8754C19.1489 15.371 18.5151 14.6609 16.6938 14.6609H14.1664C14.8002 15.0581 15.0289 15.5716 15.3458 16.6387L16.2966 20.1611C16.6898 21.7859 17.0468 22.5 18.832 22.5Z" fill="#7856FF"></path></svg> 