<?xml version="1.0" encoding="UTF-8"?> <svg xmlns="http://www.w3.org/2000/svg" width="24" height="25" viewBox="0 0 24 25" fill="none"><path d="M6.16667 20C5.70834 20 5.31597 19.8368 4.98958 19.5104C4.66319 19.184 4.5 18.7917 4.5 18.3333V6.66667C4.5 6.20833 4.66319 5.81597 4.98958 5.48958C5.31597 5.16319 5.70834 5 6.16667 5H17.8334C18.2917 5 18.6841 5.16319 19.0105 5.48958C19.3369 5.81597 19.5 6.20833 19.5 6.66667V18.3333C19.5 18.7917 19.3369 19.184 19.0105 19.5104C18.6841 19.8368 18.2917 20 17.8334 20H6.16667ZM6.16667 6.66667V18.3333H17.8334V6.66667H16.1667V12.5L14.0834 11.25L12 12.5V6.66667H6.16667Z" fill="#8d45f6"></path></svg> 