<?xml version="1.0" encoding="UTF-8"?> <svg xmlns="http://www.w3.org/2000/svg" width="24" height="25" viewBox="0 0 24 25" fill="none"><g clip-path="url(#clip0_15582_43719)"><g clip-path="url(#clip1_15582_43719)"><path d="M3.66667 19.1667C3.20834 19.1667 2.81597 19.0035 2.48958 18.6771C2.16319 18.3507 2 17.9583 2 17.5H5.33334C4.87501 17.5 4.48265 17.3368 4.15626 17.0104C3.82987 16.684 3.66667 16.2917 3.66667 15.8333V6.66667C3.66667 6.20833 3.82987 5.81597 4.15626 5.48958C4.48265 5.16319 4.87501 5 5.33334 5H18.6667C19.1251 5 19.5174 5.16319 19.8438 5.48958C20.1702 5.81597 20.3334 6.20833 20.3334 6.66667V15.8333C20.3334 16.2917 20.1702 16.684 19.8438 17.0104C19.5174 17.3368 19.1251 17.5 18.6667 17.5H22.0001C22.0001 17.9583 21.8369 18.3507 21.5105 18.6771C21.1841 19.0035 20.7917 19.1667 20.3334 19.1667H3.66667ZM12 18.3333C12.2361 18.3333 12.4341 18.2535 12.5938 18.0938C12.7535 17.934 12.8334 17.7361 12.8334 17.5C12.8334 17.2639 12.7535 17.066 12.5938 16.9062C12.4341 16.7465 12.2361 16.6667 12 16.6667C11.7639 16.6667 11.566 16.7465 11.4063 16.9062C11.2466 17.066 11.1667 17.2639 11.1667 17.5C11.1667 17.7361 11.2466 17.934 11.4063 18.0938C11.566 18.2535 11.7639 18.3333 12 18.3333ZM5.33334 15.8333H18.6667V6.66667H5.33334V15.8333Z" fill="#8d45f6"></path><path d="M14.918 10.112C15.4735 10.4327 15.4735 11.2346 14.918 11.5553L11.168 13.7204C10.6124 14.0412 9.91795 13.6402 9.91795 12.9987L9.91795 8.6686C9.91795 8.0271 10.6124 7.62616 11.1679 7.94691L14.918 10.112Z" fill="#8d45f6"></path></g></g><defs><clipPath id="clip0_15582_43719"><rect width="20" height="20" fill="white" transform="translate(2 2.5)"></rect></clipPath><clipPath id="clip1_15582_43719"><rect width="20.0001" height="20" fill="white" transform="translate(2 2.5)"></rect></clipPath></defs></svg> 