<?xml version="1.0" encoding="UTF-8"?> <svg xmlns="http://www.w3.org/2000/svg" width="24" height="24" viewBox="0 0 24 24" fill="none"><path d="M16.1371 14.5132L15.3638 13.9525C13.8172 12.8313 12.3867 11.8647 11.1494 11.13L10.8788 10.9367L12.696 6.81898L16.1371 14.5132ZM17.2197 17.2583L18.4183 16.0598L13.6046 5.31106H11.8067L9.66081 10.2987L9.42883 10.1828C8.13357 9.54482 7.14762 9.2355 6.39367 9.2355C5.42707 9.2355 4.98243 9.75747 4.80843 10.0861C4.26713 11.0334 4.57645 12.3673 5.73638 14.1459C6.16168 14.8031 6.62565 15.4024 6.93497 15.8278H8.67487L9.39016 14.2232L8.65554 12.5413L7.78559 14.4552L7.49561 14.0686C7.30229 13.7978 7.1283 13.5466 6.95431 13.2952C6.00704 11.8453 5.85238 11.0914 6.06503 10.8207C6.25835 10.5695 7.45695 10.898 8.7522 11.536C9.46749 11.8453 10.2022 12.2706 10.9174 12.7539C11.4393 13.0826 12 13.4306 12.5607 13.8172C14.6292 15.2285 16.5431 16.6978 17.2197 17.2583ZM21.5887 12C21.5887 17.2971 17.2971 21.5887 12 21.5887C6.72232 21.5887 2.41124 17.2777 2.41124 12C2.41124 6.72232 6.70299 2.41124 12 2.41124C17.2777 2.41124 21.5887 6.70298 21.5887 12ZM23 12C23 5.92971 18.0704 1 12 1C5.92971 1 1 5.92971 1 12C1 18.0704 5.92971 23 12 23C18.0704 23 23 18.051 23 12Z" fill="#111111"></path></svg> 