<?xml version="1.0" encoding="UTF-8"?> <svg xmlns="http://www.w3.org/2000/svg" width="24" height="24" viewBox="0 0 24 24" fill="none"><path d="M12.0283 2.46094C6.22366 2.46094 1.5 7.18415 1.5 12.9889C1.5 16.6882 3.43489 19.9323 6.28032 21.8101C6.45129 21.6962 6.62177 21.5824 6.79275 21.4686C6.90656 21.4114 7.07703 21.2976 7.19085 21.241C7.36183 21.1838 7.5323 21.0705 7.64612 21.0133C7.8171 20.9567 7.98757 20.8995 8.15855 20.7857C8.27237 20.729 8.44284 20.6719 8.55666 20.6152C8.72763 20.5581 8.95527 20.5014 9.12574 20.4442C9.29672 20.3876 9.41054 20.3876 9.58101 20.3304C9.75199 20.2738 9.8658 20.2738 10.0363 20.2166C10.2073 20.1599 10.3777 20.1599 10.5487 20.1599C10.7192 20.1599 10.9468 20.1028 11.1178 20.1028V19.4199V18.8508V16.5178V15.9487V13.8428H10.5487V12.7046H13.3941V20.2166C14.9876 20.4442 16.41 21.0133 17.7192 21.8101C20.6213 19.9323 22.4995 16.6882 22.4995 12.9894C22.5562 7.18465 17.833 2.46094 12.0278 2.46094H12.0283ZM15.1585 12.9894C15.1585 11.2821 13.7356 9.85913 12.0283 9.85913C10.3211 9.85913 8.89861 11.2821 8.89861 12.9894C8.89861 14.1842 9.58151 15.2658 10.6059 15.7777V16.4039C9.29722 15.8348 8.32953 14.5257 8.32953 12.9894C8.32953 10.9407 9.98013 9.29004 12.0283 9.29004C14.077 9.29004 15.7276 10.9407 15.7276 12.9894C15.7276 14.298 15.0447 15.4362 14.0204 16.1191V15.4362C14.7033 14.8105 15.1585 13.9566 15.1585 12.9894ZM14.0204 19.1922V18.5665C16.3539 17.7698 18.004 15.55 18.004 12.9322C18.004 9.68866 15.3295 7.01367 12.0283 7.01367C8.72814 7.01367 6.05319 9.68866 6.05319 12.9894C6.05319 15.7777 7.98808 18.1679 10.6059 18.7941V19.3632C7.70379 18.737 5.4841 16.1191 5.4841 12.9894C5.4841 9.3472 8.38618 6.44458 12.0288 6.44458C15.671 6.44458 18.5731 9.3472 18.5731 12.9894C18.5731 15.8915 16.6382 18.3955 14.0204 19.1922Z" fill="#E44A49"></path></svg> 