<?xml version="1.0" encoding="UTF-8"?> <svg xmlns="http://www.w3.org/2000/svg" width="24" height="24" viewBox="0 0 24 24" fill="none"><g clip-path="url(#clip0_15582_30368)"><path d="M6.9987 18.6663C6.54037 18.6663 6.14801 18.5031 5.82162 18.1768C5.49523 17.8504 5.33203 17.458 5.33203 16.9997C5.33203 16.5413 5.49523 16.149 5.82162 15.8226C6.14801 15.4962 6.54037 15.333 6.9987 15.333C7.45704 15.333 7.8494 15.4962 8.17579 15.8226C8.50218 16.149 8.66538 16.5413 8.66538 16.9997C8.66538 17.458 8.50218 17.8504 8.17579 18.1768C7.8494 18.5031 7.45704 18.6663 6.9987 18.6663ZM11.9987 18.6663C11.5404 18.6663 11.148 18.5031 10.8216 18.1768C10.4952 17.8504 10.332 17.458 10.332 16.9997C10.332 16.5413 10.4952 16.149 10.8216 15.8226C11.148 15.4962 11.5404 15.333 11.9987 15.333C12.4571 15.333 12.8494 15.4962 13.1758 15.8226C13.5022 16.149 13.6654 16.5413 13.6654 16.9997C13.6654 17.458 13.5022 17.8504 13.1758 18.1768C12.8494 18.5031 12.4571 18.6663 11.9987 18.6663ZM16.9987 18.6663C16.5404 18.6663 16.148 18.5031 15.8216 18.1768C15.4953 17.8504 15.3321 17.458 15.3321 16.9997C15.3321 16.5413 15.4953 16.149 15.8216 15.8226C16.148 15.4962 16.5404 15.333 16.9987 15.333C17.4571 15.333 17.8494 15.4962 18.1758 15.8226C18.5022 16.149 18.6654 16.5413 18.6654 16.9997C18.6654 17.458 18.5022 17.8504 18.1758 18.1768C17.8494 18.5031 17.4571 18.6663 16.9987 18.6663ZM6.9987 13.6663C6.54037 13.6663 6.14801 13.5031 5.82162 13.1768C5.49523 12.8504 5.33203 12.458 5.33203 11.9997C5.33203 11.5413 5.49523 11.149 5.82162 10.8226C6.14801 10.4962 6.54037 10.333 6.9987 10.333C7.45704 10.333 7.8494 10.4962 8.17579 10.8226C8.50218 11.149 8.66538 11.5413 8.66538 11.9997C8.66538 12.458 8.50218 12.8504 8.17579 13.1768C7.8494 13.5031 7.45704 13.6663 6.9987 13.6663ZM11.9987 13.6663C11.5404 13.6663 11.148 13.5031 10.8216 13.1768C10.4952 12.8504 10.332 12.458 10.332 11.9997C10.332 11.5413 10.4952 11.149 10.8216 10.8226C11.148 10.4962 11.5404 10.333 11.9987 10.333C12.4571 10.333 12.8494 10.4962 13.1758 10.8226C13.5022 11.149 13.6654 11.5413 13.6654 11.9997C13.6654 12.458 13.5022 12.8504 13.1758 13.1768C12.8494 13.5031 12.4571 13.6663 11.9987 13.6663ZM16.9987 13.6663C16.5404 13.6663 16.148 13.5031 15.8216 13.1768C15.4953 12.8504 15.3321 12.458 15.3321 11.9997C15.3321 11.5413 15.4953 11.149 15.8216 10.8226C16.148 10.4962 16.5404 10.333 16.9987 10.333C17.4571 10.333 17.8494 10.4962 18.1758 10.8226C18.5022 11.149 18.6654 11.5413 18.6654 11.9997C18.6654 12.458 18.5022 12.8504 18.1758 13.1768C17.8494 13.5031 17.4571 13.6663 16.9987 13.6663ZM6.9987 8.66634C6.54037 8.66634 6.14801 8.50315 5.82162 8.17676C5.49523 7.85037 5.33203 7.45801 5.33203 6.99967C5.33203 6.54134 5.49523 6.14898 5.82162 5.82259C6.14801 5.4962 6.54037 5.33301 6.9987 5.33301C7.45704 5.33301 7.8494 5.4962 8.17579 5.82259C8.50218 6.14898 8.66538 6.54134 8.66538 6.99967C8.66538 7.45801 8.50218 7.85037 8.17579 8.17676C7.8494 8.50315 7.45704 8.66634 6.9987 8.66634ZM11.9987 8.66634C11.5404 8.66634 11.148 8.50315 10.8216 8.17676C10.4952 7.85037 10.332 7.45801 10.332 6.99967C10.332 6.54134 10.4952 6.14898 10.8216 5.82259C11.148 5.4962 11.5404 5.33301 11.9987 5.33301C12.4571 5.33301 12.8494 5.4962 13.1758 5.82259C13.5022 6.14898 13.6654 6.54134 13.6654 6.99967C13.6654 7.45801 13.5022 7.85037 13.1758 8.17676C12.8494 8.50315 12.4571 8.66634 11.9987 8.66634ZM16.9987 8.66634C16.5404 8.66634 16.148 8.50315 15.8216 8.17676C15.4953 7.85037 15.3321 7.45801 15.3321 6.99967C15.3321 6.54134 15.4953 6.14898 15.8216 5.82259C16.148 5.4962 16.5404 5.33301 16.9987 5.33301C17.4571 5.33301 17.8494 5.4962 18.1758 5.82259C18.5022 6.14898 18.6654 6.54134 18.6654 6.99967C18.6654 7.45801 18.5022 7.85037 18.1758 8.17676C17.8494 8.50315 17.4571 8.66634 16.9987 8.66634Z" fill="#8d45f6"></path></g><defs><clipPath id="clip0_15582_30368"><rect width="20" height="20" fill="white" transform="translate(2 2)"></rect></clipPath></defs></svg> 