<?xml version="1.0" encoding="UTF-8"?> <svg xmlns="http://www.w3.org/2000/svg" width="24" height="24" viewBox="0 0 24 24" fill="none"><path d="M5.52851 20.8326L0.837792 12.7076C0.657445 12.3953 0.5625 12.0409 0.5625 11.6802C0.5625 11.3195 0.657445 10.9652 0.837792 10.6528L5.52851 2.528C5.70889 2.21558 5.96832 1.95614 6.28074 1.77578C6.59316 1.59541 6.94756 1.50047 7.30831 1.50049H16.6897C17.0505 1.5005 17.4048 1.59546 17.7172 1.77582C18.0296 1.95619 18.289 2.2156 18.4694 2.528L23.1601 10.6528C23.3405 10.9652 23.4354 11.3196 23.4354 11.6803C23.4354 12.0411 23.3405 12.3954 23.1601 12.7078L18.4694 20.8325C18.289 21.1449 18.0296 21.4043 17.7172 21.5846C17.4048 21.765 17.0505 21.86 16.6897 21.86H7.30831C6.94756 21.86 6.59315 21.7651 6.28073 21.5847C5.96831 21.4043 5.70887 21.1451 5.52851 20.8326Z" fill="url(#paint0_linear_5297_28327)"></path><mask id="mask0_5297_28327" style="mask-type:luminance" maskUnits="userSpaceOnUse" x="0" y="1" width="24" height="21"><path d="M5.53047 20.8331L0.839745 12.7081C0.659398 12.3958 0.564453 12.0414 0.564453 11.6807C0.564453 11.32 0.659398 10.9657 0.839745 10.6533L5.53047 2.52848C5.71081 2.21608 5.97022 1.95665 6.28261 1.77629C6.595 1.59592 6.94936 1.50097 7.31008 1.50098H16.6915C17.0523 1.50095 17.4067 1.5959 17.7191 1.77626C18.0315 1.95663 18.2909 2.21606 18.4713 2.52848L23.162 10.6533C23.3424 10.9657 23.4374 11.3201 23.4374 11.6808C23.4374 12.0415 23.3424 12.3959 23.162 12.7083L18.4713 20.833C18.291 21.1454 18.0315 21.4048 17.7191 21.5852C17.4067 21.7656 17.0523 21.8605 16.6915 21.8605H7.31008C6.94936 21.8605 6.595 21.7655 6.28261 21.5852C5.97022 21.4048 5.71081 21.1454 5.53047 20.833V20.8331Z" fill="white"></path></mask><g mask="url(#mask0_5297_28327)"><path opacity="0.07" d="M9.37569 9.87102L8.12305 11.1201L9.18753 12.1848L8.13359 14.0568L16.1096 22.0331L18.0424 22.0335L21.8169 15.2543L15.8401 9.27686L9.37569 9.87102Z" fill="black"></path></g><path d="M14.9881 9.12225H7.58377C7.46458 9.12225 7.36719 9.21982 7.36719 9.33919V10.8699C7.36719 10.9889 7.46475 11.0865 7.58377 11.0865H14.9881C15.1073 11.0865 15.2049 10.9889 15.2049 10.8699V9.33883C15.2049 9.21982 15.1075 9.12207 14.9883 9.12207M13.8418 10.5474C13.7244 10.547 13.612 10.5002 13.529 10.4172C13.4461 10.3341 13.3994 10.2216 13.3992 10.1042C13.3991 10.046 13.4106 9.98847 13.4328 9.93475C13.455 9.88102 13.4876 9.83221 13.5287 9.7911C13.5698 9.74998 13.6186 9.71738 13.6724 9.69515C13.7261 9.67293 13.7837 9.66151 13.8418 9.66156C14.0866 9.66156 14.285 9.85866 14.285 10.1042C14.285 10.1624 14.2735 10.22 14.2512 10.2738C14.229 10.3275 14.1963 10.3764 14.1552 10.4176C14.114 10.4587 14.0652 10.4914 14.0114 10.5136C13.9576 10.5359 13.9 10.5474 13.8418 10.5474ZM14.9881 12.0647L7.58377 12.065C7.46458 12.065 7.36719 12.1626 7.36719 12.282V13.8125C7.36719 13.9315 7.46475 14.0293 7.58377 14.0293H14.9881C15.1073 14.0293 15.2049 13.9315 15.2049 13.8125V12.2816C15.2049 12.1626 15.1073 12.0647 14.9881 12.0647ZM13.8418 13.49C13.7244 13.4897 13.6119 13.4429 13.529 13.3598C13.446 13.2768 13.3993 13.1642 13.3992 13.0468C13.3991 12.9887 13.4106 12.9311 13.4328 12.8773C13.455 12.8236 13.4876 12.7748 13.5287 12.7337C13.5698 12.6926 13.6186 12.66 13.6724 12.6378C13.7261 12.6155 13.7837 12.6041 13.8418 12.6042C13.9015 12.6018 13.961 12.6114 14.0168 12.6326C14.0726 12.6538 14.1236 12.686 14.1666 12.7274C14.2097 12.7687 14.2439 12.8184 14.2673 12.8733C14.2907 12.9282 14.3028 12.9873 14.3028 13.047C14.3028 13.1067 14.2907 13.1657 14.2673 13.2207C14.2439 13.2756 14.2097 13.3252 14.1666 13.3666C14.1236 13.4079 14.0726 13.4402 14.0168 13.4613C13.961 13.4825 13.9015 13.4924 13.8418 13.49Z" fill="white"></path><defs><linearGradient id="paint0_linear_5297_28327" x1="11.999" y1="1.50067" x2="11.999" y2="21.8283" gradientUnits="userSpaceOnUse"><stop stop-color="#4387FD"></stop><stop offset="1" stop-color="#4683EA"></stop></linearGradient></defs></svg> 