<?xml version="1.0" encoding="UTF-8"?> <svg xmlns="http://www.w3.org/2000/svg" width="24" height="24" viewBox="0 0 24 24" fill="none"><g clip-path="url(#clip0_15582_39932)"><path d="M11.9987 20.3337C11.6376 20.3337 11.3112 20.2469 11.0195 20.0732C10.7279 19.8996 10.4987 19.667 10.332 19.3753C9.87371 19.3753 9.48135 19.2121 9.15496 18.8857C8.82857 18.5594 8.66537 18.167 8.66537 17.7087V14.7503C7.84593 14.2087 7.18967 13.4934 6.69662 12.6045C6.20356 11.7156 5.95703 10.7503 5.95703 9.70866C5.95703 8.0281 6.54384 6.60102 7.71745 5.42741C8.89107 4.2538 10.3182 3.66699 11.9987 3.66699C13.6793 3.66699 15.1064 4.2538 16.28 5.42741C17.4536 6.60102 18.0404 8.0281 18.0404 9.70866C18.0404 10.7781 17.7939 11.7503 17.3008 12.6253C16.8078 13.5003 16.1515 14.2087 15.3321 14.7503V17.7087C15.3321 18.167 15.1689 18.5594 14.8425 18.8857C14.5161 19.2121 14.1237 19.3753 13.6654 19.3753C13.4987 19.667 13.2696 19.8996 12.9779 20.0732C12.6862 20.2469 12.3598 20.3337 11.9987 20.3337ZM10.332 17.7087H13.6654V16.9587H10.332V17.7087ZM10.332 16.1253H13.6654V15.3337H10.332V16.1253ZM10.1654 13.667H11.3737V11.417L9.54038 9.58366L10.4154 8.70866L11.9987 10.292L13.5821 8.70866L14.4571 9.58366L12.6237 11.417V13.667H13.8321C14.5821 13.3059 15.1932 12.7746 15.6654 12.0732C16.1376 11.3719 16.3737 10.5837 16.3737 9.70866C16.3737 8.48644 15.9501 7.45171 15.1029 6.60449C14.2557 5.75727 13.2209 5.33366 11.9987 5.33366C10.7765 5.33366 9.74177 5.75727 8.89454 6.60449C8.04732 7.45171 7.6237 8.48644 7.6237 9.70866C7.6237 10.5837 7.85982 11.3719 8.33204 12.0732C8.80426 12.7746 9.41538 13.3059 10.1654 13.667Z" fill="#8d45f6"></path></g><defs><clipPath id="clip0_15582_39932"><rect width="20" height="20" fill="white" transform="translate(2 2)"></rect></clipPath></defs></svg> 