<?xml version="1.0" encoding="UTF-8"?> <svg xmlns="http://www.w3.org/2000/svg" width="24" height="24" viewBox="0 0 24 24" fill="none"><path d="M10.8202 10.3025C9.906 11.8799 9.03023 13.4076 8.13618 14.9235C7.90657 15.3128 7.79293 15.6298 7.97636 16.1246C8.48278 17.4913 7.76837 18.8214 6.4257 19.1825C5.15945 19.5231 3.92577 18.6688 3.67454 17.2772C3.45191 16.0455 4.38309 14.8379 5.70612 14.6454C5.81692 14.6292 5.93013 14.6273 6.1164 14.613L8.12885 11.1489C6.86312 9.85697 6.10977 8.34684 6.27648 6.47543C6.39434 5.15262 6.90111 4.00943 7.82731 3.07249C9.60132 1.2782 12.3077 0.987668 14.3964 2.36487C16.4025 3.68778 17.3213 6.26458 16.5381 8.47004C15.9476 8.30572 15.353 8.13998 14.6993 7.95797C14.9451 6.73173 14.7633 5.63064 13.9577 4.68734C13.4253 4.06453 12.7423 3.7381 11.9657 3.61782C10.4087 3.37637 8.87997 4.40317 8.42635 5.97194C7.91148 7.75226 8.69077 9.20666 10.8202 10.3027V10.3025Z" fill="#C73A63"></path><path d="M13.4294 8.43585C14.0735 9.60212 14.7274 10.786 15.3754 11.959C18.6511 10.9186 21.1209 12.78 22.007 14.7729C23.0771 17.1801 22.3456 20.0313 20.2438 21.5165C18.0864 23.0411 15.358 22.7807 13.4467 20.8222C13.9338 20.4036 14.4233 19.9831 14.9463 19.5339C16.8342 20.7891 18.4854 20.73 19.7113 19.2437C20.7567 17.9758 20.7339 16.0851 19.6584 14.8437C18.417 13.4113 16.7542 13.3675 14.7444 14.7426C13.9107 13.2243 13.0624 11.7181 12.255 10.1887C11.9828 9.67331 11.6823 9.37421 11.0686 9.26515C10.044 9.08279 9.38246 8.17955 9.34269 7.16761C9.30371 6.16681 9.87811 5.26215 10.7759 4.90971C11.6652 4.56046 12.7088 4.84232 13.307 5.61848C13.7958 6.2526 13.9512 6.96632 13.6939 7.7484C13.6225 7.96649 13.5298 8.17751 13.4294 8.43594V8.43585Z" fill="#4B4B4B"></path><path d="M14.9715 17.9712H11.0281C10.6501 19.567 9.83365 20.8554 8.42701 21.6748C7.33342 22.3115 6.1548 22.5274 4.90036 22.3196C2.59066 21.9372 0.702097 19.8028 0.535812 17.3995C0.34765 14.677 2.17064 12.2569 4.60053 11.7134C4.76828 12.3388 4.93784 12.9701 5.10558 13.594C2.87618 14.7616 2.10456 16.2327 2.72851 18.0723C3.27776 19.6911 4.83798 20.5784 6.53208 20.2353C8.26211 19.8849 9.13437 18.409 9.02788 16.0403C10.6679 16.0403 12.3094 16.023 13.9497 16.049C14.5902 16.0593 15.0846 15.9911 15.5671 15.4115C16.3615 14.4578 17.8236 14.5438 18.6792 15.4446C19.5535 16.3651 19.5116 17.8464 18.5863 18.7281C17.6937 19.5789 16.2835 19.5334 15.4482 18.6167C15.2766 18.4277 15.1413 18.2034 14.9715 17.9712Z" fill="#4A4A4A"></path></svg> 