<?xml version="1.0" encoding="UTF-8"?> <svg xmlns="http://www.w3.org/2000/svg" width="24" height="25" viewBox="0 0 24 25" fill="none"><path d="M14.0834 17.5003C13.5 17.5003 13.007 17.2989 12.6042 16.8962C12.2014 16.4934 12 16.0003 12 15.417C12 14.8337 12.2014 14.3406 12.6042 13.9378C13.007 13.535 13.5 13.3337 14.0834 13.3337C14.6667 13.3337 15.1598 13.535 15.5625 13.9378C15.9653 14.3406 16.1667 14.8337 16.1667 15.417C16.1667 16.0003 15.9653 16.4934 15.5625 16.8962C15.1598 17.2989 14.6667 17.5003 14.0834 17.5003ZM6.16667 20.8337C5.70834 20.8337 5.31584 20.6706 4.98917 20.3445C4.66306 20.0178 4.5 19.6253 4.5 19.167V7.50033C4.5 7.04199 4.66306 6.64977 4.98917 6.32366C5.31584 5.99699 5.70834 5.83366 6.16667 5.83366H7.00001V4.16699H8.66668V5.83366H15.3334V4.16699H17V5.83366H17.8334C18.2917 5.83366 18.6842 5.99699 19.0109 6.32366C19.337 6.64977 19.5 7.04199 19.5 7.50033V19.167C19.5 19.6253 19.337 20.0178 19.0109 20.3445C18.6842 20.6706 18.2917 20.8337 17.8334 20.8337H6.16667ZM6.16667 19.167H17.8334V10.8337H6.16667V19.167ZM6.16667 9.16699H17.8334V7.50033H6.16667V9.16699ZM6.16667 9.16699V7.50033V9.16699Z" fill="#8d45f6"></path></svg> 