<?xml version="1.0" encoding="UTF-8"?> <svg xmlns="http://www.w3.org/2000/svg" width="24" height="24" viewBox="0 0 24 24" fill="none"><path fill-rule="evenodd" clip-rule="evenodd" d="M18.3546 21.2836C18.3546 21.2836 10.4368 21.2836 9.30568 21.2836C8.17457 21.2836 6.9492 20.0896 7.29481 18.6286L8.59874 13.0202C8.94435 11.5434 10.4054 10.3652 11.8664 10.3652H17.1763C17.2392 10.3652 17.302 10.3495 17.3491 10.3181L20.9938 7.72592C21.2138 7.56882 21.5123 7.77305 21.4494 8.02441L20.9153 10.3809C22.3763 10.3809 23.2718 11.5748 22.9262 13.0359L21.6222 18.6443C21.2766 20.0896 19.8156 21.2836 18.3546 21.2836Z" fill="#00E6A0"></path><path fill-rule="evenodd" clip-rule="evenodd" d="M5.66141 1.88184C5.66141 1.88184 11.0813 1.88184 14.5375 1.88184C15.7 1.88184 17.0668 2.73017 16.7055 4.56823C16.1399 6.98755 15.4015 10.2081 15.4015 10.2081C15.0559 11.6848 13.5949 12.8631 12.1339 12.8631H6.83965C6.77681 12.8631 6.71397 12.8788 6.66684 12.9259L3.03786 15.5023C2.81792 15.6594 2.50372 15.4552 2.56656 15.1881L3.08499 12.8631C1.62397 12.8631 0.728504 11.6691 1.07412 10.2081C1.07412 10.2081 1.95388 6.35916 2.37804 4.53681C2.83363 2.73017 4.20039 1.88184 5.66141 1.88184Z" fill="#0059BE"></path><path opacity="0.8" fill-rule="evenodd" clip-rule="evenodd" d="M18.3546 21.2836C18.3546 21.2836 10.4368 21.2836 9.30568 21.2836C8.17457 21.2836 6.9492 20.0896 7.29481 18.6286L8.59874 13.0202C8.94435 11.5434 10.4054 10.3652 11.8664 10.3652H17.1763C17.2392 10.3652 17.302 10.3495 17.3491 10.3181L20.9938 7.72592C21.2138 7.56882 21.5123 7.77305 21.4494 8.02441L20.9153 10.3809C22.3763 10.3809 23.2718 11.5748 22.9262 13.0359L21.6222 18.6443C21.2766 20.0896 19.8156 21.2836 18.3546 21.2836Z" fill="#00E6A0"></path><path opacity="0.8" d="M7.73471 18.6135L7.31055 18.6921L8.58305 13.0522C8.92867 11.5598 10.4211 10.3501 11.8821 10.3501H17.2078V10.7428L11.9607 10.7114C10.7039 10.7114 9.28999 11.8425 8.9758 13.0679L7.73471 18.6135Z" fill="#00E6A0"></path><path d="M5.84921 10.6002C5.81779 10.6002 5.78637 10.6002 5.75495 10.5844C5.5193 10.5216 5.3622 10.286 5.42504 10.0503L6.61899 4.88175C6.66612 4.67752 6.83893 4.53613 7.05887 4.53613H10.7978C11.3948 4.53613 11.7404 4.78749 11.9289 5.00743C12.1646 5.2745 12.2903 5.63583 12.2903 6.04428C12.2903 7.12827 11.4419 8.33793 10.2166 8.33793H6.76038L6.32051 10.2545C6.22625 10.4588 6.05344 10.6002 5.84921 10.6002ZM6.93319 7.44246H10.1851C10.9235 7.44246 11.3791 6.62555 11.3791 6.04428C11.3791 5.85576 11.332 5.69867 11.2377 5.5887C11.1434 5.47873 10.9863 5.4316 10.7821 5.4316H7.40449L6.93319 7.44246Z" fill="white"></path><path d="M11.8841 18.7233C11.8056 18.7233 11.727 18.7075 11.6642 18.6761C11.4914 18.5819 11.3971 18.3933 11.4128 18.2048L11.9627 13.9632C11.9941 13.7118 12.2297 13.5233 12.4811 13.5547C12.7325 13.5861 12.921 13.8218 12.8896 14.0731L12.5125 17.0894L14.7905 15.0471C14.9004 14.9529 15.0418 14.9057 15.1832 14.9372C15.3246 14.9529 15.4503 15.0471 15.5131 15.1728L16.6756 17.2308L18.2466 13.8375C18.3566 13.6018 18.6394 13.5076 18.875 13.6175C19.1107 13.7275 19.2049 14.0103 19.095 14.2459L17.1312 18.4719C17.0527 18.629 16.8956 18.739 16.7228 18.739C16.55 18.739 16.3772 18.6604 16.2986 18.5033L14.979 16.1468L12.1983 18.6133C12.1041 18.6918 11.9941 18.7233 11.8841 18.7233Z" fill="white"></path></svg> 