<?xml version="1.0" encoding="UTF-8"?> <svg xmlns="http://www.w3.org/2000/svg" width="24" height="24" viewBox="0 0 24 24" fill="none"><path fill-rule="evenodd" clip-rule="evenodd" d="M19.1883 12.1835L19.1906 12.1816C19.3098 12.0839 19.3859 11.9357 19.3859 11.7713C19.3859 11.5145 19.2051 11.3005 18.9612 11.2517L18.9569 11.2507C18.9555 11.2505 18.9542 11.2502 18.9529 11.2498C18.9514 11.2495 18.9499 11.2491 18.9483 11.2488L18.9386 11.2479C18.9127 11.2437 18.8864 11.241 18.8595 11.2406L18.7893 11.234C17.1144 11.1141 15.3913 11.0669 13.7748 11.0346L13.7717 11.0228C12.985 8.07169 12.0022 5.05474 10.6771 5.05474C9.44241 5.06032 8.32928 7.04265 7.36807 10.9478C6.68888 10.9391 6.06992 10.9298 5.48618 10.9198C5.45309 10.9192 5.42329 10.919 5.39671 10.919C5.27233 10.919 5.21153 10.9242 5.18125 10.9281C4.85257 10.9863 4.61402 11.2733 4.61402 11.6103C4.61402 11.9541 4.87072 12.2488 5.20494 12.297L5.21177 12.304H7.05309C6.88225 13.0853 6.73245 13.8581 6.60743 14.6025L6.55265 14.9301L6.55205 14.9459C6.55321 15.1986 6.7598 15.4042 7.01253 15.4042C7.17269 15.4042 7.31791 15.3207 7.40068 15.1905L7.41394 15.201L8.31908 12.304H12.6794C13.0125 13.5627 13.358 14.8623 13.8146 16.082V16.0821C14.0588 16.7344 14.6305 18.2618 15.586 18.2693L15.5967 18.2694C17.0755 18.2694 17.6518 15.881 18.0333 14.2999L18.0334 14.2996L18.0335 14.2994C18.1155 13.9593 18.1864 13.6656 18.2532 13.4498L18.2799 13.3607H18.2798C18.2861 13.3398 18.2895 13.3176 18.2895 13.2947C18.2895 13.1681 18.1869 13.0655 18.0603 13.0655C17.9622 13.0655 17.8788 13.1273 17.8461 13.2139L17.8455 13.2137L17.8135 13.3024C17.688 13.6499 17.5719 13.9784 17.469 14.2695L17.4613 14.2914L17.4612 14.2917C16.8212 16.1041 16.529 16.9314 15.9568 16.9315L15.9427 16.9314L15.9348 16.9326L15.9205 16.9322C15.1879 16.9322 14.4982 13.9543 14.2386 12.8334C14.1937 12.6392 14.1523 12.461 14.1144 12.304H18.8512C18.9401 12.304 19.0238 12.2819 19.0975 12.2433L19.0987 12.2427C19.1062 12.2388 19.1133 12.2345 19.1206 12.2302C19.1285 12.2256 19.1363 12.2209 19.144 12.2159L19.1551 12.2083C19.1665 12.2004 19.1776 12.1922 19.1883 12.1835ZM2 12C2 6.47715 6.47715 2 12 2C17.5229 2 22 6.47715 22 12C22 17.5228 17.5229 22 12 22C6.47715 22 2 17.5228 2 12ZM10.5959 6.42522C10.6655 6.42522 10.7283 6.46351 10.7835 6.53648C10.9218 6.75157 11.1609 7.23446 11.5148 8.31286C11.7568 9.0507 12.021 9.9648 12.3004 11.0313C11.2404 11.0149 10.1678 11.0027 9.12929 10.9909L8.60342 10.9849C9.19748 8.65663 9.92231 6.88985 10.452 6.47272C10.4859 6.45101 10.5384 6.42522 10.5959 6.42522Z" fill="#007FD2"></path></svg> 