<?xml version="1.0" encoding="UTF-8"?> <svg xmlns="http://www.w3.org/2000/svg" width="35" height="35" viewBox="0 0 35 35" fill="none"><path d="M27.1843 18.4539C26.7261 10.3196 23.0599 4.82032 16.0713 1.15416C17.7898 0.352189 19.5083 0.695889 20.9977 1.03959C29.0174 2.98724 29.934 4.82032 29.132 13.1837C29.132 14.9023 28.4446 16.6208 27.1843 18.4539Z" fill="#3E94E5"></path><path d="M33.256 24.9844C31.5375 29.1088 28.6733 31.8584 24.6634 33.5769C24.4343 33.6915 23.976 33.8061 23.7469 33.6915C19.2788 32.6604 15.498 30.3691 12.9775 26.2446C20.0807 29.4525 26.7256 28.9942 33.256 24.9844Z" fill="#3E94E5"></path><path d="M22.3721 26.2447C28.9024 21.8912 31.9957 15.9337 31.5375 8.14307C34.2871 11.6947 35.3182 15.7045 34.7454 20.0581C34.7454 20.4018 34.4017 20.7455 34.1725 21.0892C30.9646 24.4117 27.0693 26.2447 22.3721 26.2447Z" fill="#3E94E5"></path><path d="M22.4865 9.7468C15.6125 6.42435 9.08211 6.88261 2.55176 11.1216C2.78089 9.17396 3.92657 7.79915 4.95768 6.76805C10.5715 1.03967 12.9774 0.695968 19.7369 5.96607C20.8826 6.99718 21.9137 8.14286 22.4865 9.7468Z" fill="#3E94E5"></path><path d="M13.7805 9.63163C6.67728 13.7561 3.92766 19.7136 4.38593 27.6187C2.66741 26.2439 2.20914 24.7545 1.75087 23.2652C-0.196774 16.0474 0.376064 13.9852 7.59382 10.7773C9.31233 9.86077 11.26 9.4025 13.7805 9.63163Z" fill="#3E94E5"></path><path d="M20.4245 34.8363C16.1855 35.2946 12.9776 34.6072 9.76968 33.0032C7.9366 32.0867 6.9055 30.8264 6.67636 28.7642C6.21809 24.9835 6.33266 21.4319 8.73858 17.5366C8.62401 25.9 12.7484 31.2847 20.4245 34.8363Z" fill="#3E94E5"></path></svg> 